<svg width="26" height="25" viewBox="0 0 26 25" fill="none" xmlns="http://www.w3.org/2000/svg">
<path d="M25.8528 6.75547C25.7779 6.65044 25.6786 6.56472 25.5631 6.50552C25.4476 6.44631 25.3195 6.41537 25.1894 6.41529H22.6441L17.4093 2.01037C16.7719 1.3811 15.7373 1.38029 15.1 2.01037L9.95427 6.41529H7.8593L6.54745 1.94869C6.033 0.189871 4.81054 0 4.30915 0H0.810875C0.362566 0 0 0.358376 0 0.800601C0 1.24283 0.362949 1.60118 0.810849 1.60118H4.30831C4.41895 1.60118 4.75662 1.60118 4.98692 2.38686L9.49981 18.7621C9.5978 19.1076 9.91668 19.3462 10.2805 19.3462H21.3036C21.6458 19.3462 21.9512 19.1345 22.0667 18.8165L25.9521 7.48673C26.0415 7.24123 26.0043 6.96792 25.8529 6.75547H25.8528ZM16.2547 3.1508L20.1344 6.41569H12.3739L16.2547 3.1508ZM20.7329 17.7454H10.8959L8.31465 8.01687H24.0365L20.7329 17.7454ZM19.1247 20.9688C17.997 20.9688 17.0832 21.871 17.0832 22.9844C17.0832 24.0978 17.997 25 19.1247 25C20.2524 25 21.1662 24.0978 21.1662 22.9844C21.1662 21.871 20.2524 20.9688 19.1247 20.9688ZM11.7754 20.9688C10.6477 20.9688 9.73389 21.871 9.73389 22.9844C9.73389 24.0978 10.6477 25 11.7754 25C12.9031 25 13.8168 24.0978 13.8168 22.9844C13.8168 21.871 12.9031 20.9688 11.7754 20.9688Z" fill="black"/>
</svg>
