<svg width="20" height="20" viewBox="0 0 20 20" fill="none" xmlns="http://www.w3.org/2000/svg">
<path d="M16.5831 10.5505C16.4495 10.3984 16.3758 10.2029 16.3758 10.0005C16.3758 9.79806 16.4495 9.60256 16.5831 9.45048L17.6498 8.25048C17.7673 8.11937 17.8403 7.9544 17.8582 7.77924C17.8762 7.60407 17.8382 7.42772 17.7498 7.27548L16.0831 4.39215C15.9955 4.24008 15.8622 4.11955 15.702 4.04772C15.5419 3.97589 15.3632 3.95645 15.1914 3.99215L13.6248 4.30882C13.4254 4.35001 13.2179 4.31681 13.0413 4.21548C12.8648 4.11416 12.7314 3.95172 12.6664 3.75882L12.1581 2.23382C12.1022 2.0683 11.9957 1.92454 11.8536 1.82285C11.7115 1.72116 11.5411 1.6667 11.3664 1.66715H8.03308C7.85136 1.65766 7.67153 1.70792 7.52105 1.81024C7.37058 1.91257 7.25773 2.06133 7.19975 2.23382L6.73308 3.75882C6.66808 3.95172 6.53473 4.11416 6.35818 4.21548C6.18163 4.31681 5.9741 4.35001 5.77475 4.30882L4.16642 3.99215C4.00354 3.96913 3.8375 3.99483 3.68921 4.06602C3.54091 4.1372 3.417 4.25067 3.33308 4.39215L1.66642 7.27548C1.57572 7.42602 1.53494 7.60139 1.5499 7.7765C1.56487 7.95162 1.63482 8.11752 1.74975 8.25048L2.80808 9.45048C2.94168 9.60256 3.01536 9.79806 3.01536 10.0005C3.01536 10.2029 2.94168 10.3984 2.80808 10.5505L1.74975 11.7505C1.63482 11.8834 1.56487 12.0493 1.5499 12.2245C1.53494 12.3996 1.57572 12.5749 1.66642 12.7255L3.33308 15.6088C3.42067 15.7609 3.55402 15.8814 3.71413 15.9532C3.87424 16.0251 4.05294 16.0445 4.22475 16.0088L5.79142 15.6921C5.99076 15.651 6.1983 15.6842 6.37484 15.7855C6.55139 15.8868 6.68475 16.0492 6.74975 16.2421L7.25808 17.7671C7.31607 17.9396 7.42891 18.0884 7.57939 18.1907C7.72986 18.293 7.9097 18.3433 8.09142 18.3338H11.4248C11.5995 18.3343 11.7699 18.2798 11.9119 18.1781C12.054 18.0764 12.1605 17.9327 12.2164 17.7671L12.7248 16.2421C12.7897 16.0492 12.9231 15.8868 13.0997 15.7855C13.2762 15.6842 13.4837 15.651 13.6831 15.6921L15.2498 16.0088C15.4216 16.0445 15.6003 16.0251 15.7604 15.9532C15.9205 15.8814 16.0538 15.7609 16.1414 15.6088L17.8081 12.7255C17.8966 12.5732 17.9345 12.3969 17.9166 12.2217C17.8986 12.0466 17.8256 11.8816 17.7081 11.7505L16.5831 10.5505ZM15.3414 11.6671L16.0081 12.4171L14.9414 14.2671L13.9581 14.0671C13.3579 13.9445 12.7336 14.0464 12.2036 14.3536C11.6736 14.6609 11.2749 15.152 11.0831 15.7338L10.7664 16.6671H8.63308L8.33308 15.7171C8.1413 15.1353 7.74257 14.6442 7.21259 14.337C6.68261 14.0297 6.05827 13.9278 5.45808 14.0505L4.47475 14.2505L3.39142 12.4088L4.05808 11.6588C4.46805 11.2005 4.69469 10.6071 4.69469 9.99215C4.69469 9.3772 4.46805 8.78383 4.05808 8.32548L3.39142 7.57548L4.45808 5.74215L5.44142 5.94215C6.0416 6.06483 6.66594 5.96288 7.19592 5.65565C7.7259 5.34841 8.12463 4.85728 8.31642 4.27548L8.63308 3.33382H10.7664L11.0831 4.28382C11.2749 4.86561 11.6736 5.35675 12.2036 5.66398C12.7336 5.97122 13.3579 6.07317 13.9581 5.95048L14.9414 5.75048L16.0081 7.60048L15.3414 8.35048C14.9361 8.80778 14.7122 9.39772 14.7122 10.0088C14.7122 10.6199 14.9361 11.2098 15.3414 11.6671ZM9.69975 6.66715C9.04048 6.66715 8.39601 6.86265 7.84785 7.22892C7.29969 7.59519 6.87244 8.11578 6.62015 8.72487C6.36786 9.33396 6.30185 10.0042 6.43047 10.6508C6.55908 11.2974 6.87655 11.8913 7.34273 12.3575C7.8089 12.8237 8.40285 13.1411 9.04945 13.2698C9.69605 13.3984 10.3663 13.3324 10.9754 13.0801C11.5844 12.8278 12.105 12.4005 12.4713 11.8524C12.8376 11.3042 13.0331 10.6598 13.0331 10.0005C13.0331 9.11643 12.6819 8.26858 12.0568 7.64346C11.4317 7.01834 10.5838 6.66715 9.69975 6.66715ZM9.69975 11.6671C9.37012 11.6671 9.04788 11.5694 8.7738 11.3863C8.49972 11.2031 8.2861 10.9428 8.15995 10.6383C8.03381 10.3337 8.0008 9.99863 8.06511 9.67533C8.12942 9.35203 8.28815 9.05506 8.52124 8.82197C8.75433 8.58888 9.0513 8.43015 9.3746 8.36584C9.6979 8.30153 10.033 8.33454 10.3376 8.46068C10.6421 8.58683 10.9024 8.80045 11.0855 9.07453C11.2687 9.34861 11.3664 9.67085 11.3664 10.0005C11.3664 10.4425 11.1908 10.8664 10.8783 11.179C10.5657 11.4916 10.1418 11.6671 9.69975 11.6671Z" fill="black"/>
</svg>
