<svg width="16" height="16" viewBox="0 0 16 16" fill="none" xmlns="http://www.w3.org/2000/svg">
<rect width="16" height="16" rx="3" fill="#196ADB" fill-opacity="0.3"/>
<path d="M4.72861 5.02366V10.8926H3.69621L1.23667 7.19153H1.19526V10.8926H0V5H1.04896L3.48918 8.71896H3.53887V5L4.72861 5.02366Z" fill="#196ADB"/>
<path d="M5.50594 10.8926V8.57343V6.25427L6.34953 6.86409V10.8926H5.50594ZM6.34953 6.26593L5.50594 5.60751C5.70028 5.60751 5.92185 5.60751 6.09668 5.60751C6.2715 5.60751 6.21938 5.6075 6.34953 5.60751C6.34953 5.85785 6.34953 5.94629 6.34953 6.11569C6.34953 6.21732 6.34953 6.21402 6.34953 6.26593Z" fill="black"/>
<path d="M8.31164 8.34937V10.8926H7.1357V6.47835H8.25643V7.26083C8.25643 7.19153 8.25643 6.70934 8.25643 6.70934C8.47727 6.55727 9.26675 6.4206 9.58144 6.4206C9.87588 6.4206 10.1326 6.48797 10.3516 6.62271C10.5706 6.75746 10.7408 6.94995 10.8623 7.20019C10.9837 7.44851 11.0445 7.74495 11.0445 8.08951V10.8926H9.86852V8.30895C9.87036 8.03754 9.80411 7.82579 9.66977 7.67373C9.53543 7.51973 9.35048 7.44273 9.11493 7.44273C8.95666 7.44273 8.8168 7.47835 8.69534 7.54957C8.57572 7.62079 8.48187 7.72474 8.41378 7.86141C8.34753 7.99615 8.31348 8.15881 8.31164 8.34937Z" fill="black"/>
<path d="M13.9131 11C13.4843 11 13.1135 10.9047 12.8007 10.7141C12.4897 10.5217 12.2495 10.2541 12.0802 9.91145C11.9109 9.56689 11.8262 9.16747 11.8262 8.71319C11.8262 8.25505 11.9109 7.85467 12.0802 7.51203C12.2495 7.16747 12.4897 6.8999 12.8007 6.70934C13.1135 6.51684 13.4843 6.4206 13.9131 6.4206C14.3419 6.4206 14.7118 6.51684 15.0228 6.70934C15.3357 6.8999 15.5767 7.16747 15.746 7.51203C15.9153 7.85467 16 8.25505 16 8.71319C16 9.16747 15.9153 9.56689 15.746 9.91145C15.5767 10.2541 15.3357 10.5217 15.0228 10.7141C14.7118 10.9047 14.3419 11 13.9131 11ZM13.9186 10.0472C14.1137 10.0472 14.2766 9.98941 14.4072 9.87392C14.5379 9.7565 14.6363 9.59673 14.7026 9.39461C14.7707 9.19249 14.8047 8.96246 14.8047 8.70452C14.8047 8.44658 14.7707 8.21655 14.7026 8.01444C14.6363 7.81232 14.5379 7.65255 14.4072 7.53513C14.2766 7.41771 14.1137 7.359 13.9186 7.359C13.7217 7.359 13.5561 7.41771 13.4218 7.53513C13.2893 7.65255 13.189 7.81232 13.1209 8.01444C13.0546 8.21655 13.0215 8.44658 13.0215 8.70452C13.0215 8.96246 13.0546 9.19249 13.1209 9.39461C13.189 9.59673 13.2893 9.7565 13.4218 9.87392C13.5561 9.98941 13.7217 10.0472 13.9186 10.0472Z" fill="black"/>
</svg>
