<svg width="50" height="17" viewBox="0 0 50 17" fill="none" xmlns="http://www.w3.org/2000/svg">
<path d="M14.7769 0.0670235V16.6956H11.5507L3.8646 6.20934H3.7352V16.6956H0V0H3.27801L10.9037 10.5371H11.059V0L14.7769 0.0670235Z" fill="#196ADB"/>
<path d="M17.2061 16.6956V10.1247V3.55377L19.8423 5.28159V16.6956H17.2061ZM19.8423 3.5868L17.2061 1.72127C17.8134 1.72129 18.5058 1.72127 19.0521 1.72127C19.5984 1.72127 19.4356 1.72126 19.8423 1.72127C19.8423 2.43057 19.8423 2.68116 19.8423 3.16111C19.8423 3.44908 19.8423 3.43972 19.8423 3.5868Z" fill="black"/>
<path d="M25.9739 9.48989V16.6956H22.2991V4.18864H25.8014V6.40568C25.8014 6.20934 25.8014 4.84312 25.8014 4.84312C26.4915 4.41226 28.9586 4.02503 29.942 4.02503C30.8621 4.02503 31.6644 4.21591 32.3487 4.59769C33.0331 4.97947 33.565 5.52487 33.9446 6.23388C34.3242 6.93744 34.5139 7.77735 34.5139 8.75361V16.6956H30.8391V9.37536C30.8449 8.60635 30.6378 8.00642 30.218 7.57556C29.7982 7.13924 29.2203 6.92108 28.4841 6.92108C27.9896 6.92108 27.5525 7.02198 27.1729 7.22378C26.7991 7.42557 26.5058 7.72008 26.2931 8.10732C26.086 8.48909 25.9796 8.94995 25.9739 9.48989Z" fill="black"/>
<path d="M43.4785 17C42.1385 17 40.9797 16.73 40.0021 16.1901C39.0302 15.6447 38.2797 14.8866 37.7506 13.9158C37.2215 12.9395 36.957 11.8078 36.957 10.5207C36.957 9.22265 37.2215 8.08823 37.7506 7.11742C38.2797 6.14116 39.0302 5.38306 40.0021 4.84312C40.9797 4.29772 42.1385 4.02503 43.4785 4.02503C44.8185 4.02503 45.9744 4.29772 46.9463 4.84312C47.9239 5.38306 48.6773 6.14116 49.2064 7.11742C49.7355 8.08823 50 9.22265 50 10.5207C50 11.8078 49.7355 12.9395 49.2064 13.9158C48.6773 14.8866 47.9239 15.6447 46.9463 16.1901C45.9744 16.73 44.8185 17 43.4785 17ZM43.4958 14.3003C44.1053 14.3003 44.6143 14.1367 45.0226 13.8094C45.4309 13.4767 45.7386 13.0241 45.9456 12.4514C46.1584 11.8787 46.2648 11.227 46.2648 10.4961C46.2648 9.76532 46.1584 9.11357 45.9456 8.5409C45.7386 7.96824 45.4309 7.51556 45.0226 7.18287C44.6143 6.85018 44.1053 6.68383 43.4958 6.68383C42.8804 6.68383 42.3628 6.85018 41.943 7.18287C41.5289 7.51556 41.2155 7.96824 41.0027 8.5409C40.7957 9.11357 40.6922 9.76532 40.6922 10.4961C40.6922 11.227 40.7957 11.8787 41.0027 12.4514C41.2155 13.0241 41.5289 13.4767 41.943 13.8094C42.3628 14.1367 42.8804 14.3003 43.4958 14.3003Z" fill="black"/>
</svg>
