<svg width="242" height="27" viewBox="0 0 242 27" fill="none" xmlns="http://www.w3.org/2000/svg">
<path d="M22.1817 0.949007V26.5318H17.3388L5.80117 10.3988H5.60694V26.5318H0V0.845892H4.92064L16.3676 17.0569H16.6007V0.845892L22.1817 0.949007Z" fill="#196ADB"/>
<path d="M25.8282 26.5318V16.4225V6.31329L29.7854 8.9715V26.5318H25.8282ZM29.7854 6.36411L25.8282 3.49403C26.7398 3.49406 27.7792 3.49403 28.5993 3.49403C29.4194 3.49403 29.1749 3.49402 29.7854 3.49403C29.7854 4.58527 29.7854 4.9708 29.7854 5.70919C29.7854 6.15222 29.7854 6.13782 29.7854 6.36411Z" fill="#000000"/>
<path d="M38.9896 15.4459V26.5318H33.4733V7.29003H38.7306V10.7009C38.7306 10.3988 38.7306 8.29692 38.7306 8.29692C39.7665 7.63405 43.47 7.0383 44.9462 7.0383C46.3274 7.0383 47.5317 7.33198 48.5589 7.91933C49.5862 8.50669 50.3848 9.34577 50.9545 10.4366C51.5243 11.519 51.8092 12.8112 51.8092 14.3131V26.5318H46.2929V15.2697C46.3015 14.0866 45.9907 13.1636 45.3605 12.5007C44.7303 11.8294 43.8628 11.4938 42.7578 11.4938C42.0154 11.4938 41.3593 11.649 40.7895 11.9595C40.2284 12.27 39.7881 12.7231 39.4687 13.3188C39.1579 13.9062 38.9982 14.6152 38.9896 15.4459Z" fill="#000000"/>
<path d="M65.2659 27C63.2545 27 61.515 26.5847 60.0474 25.754C58.5885 24.9149 57.462 23.7486 56.6677 22.255C55.8735 20.7531 55.4764 19.012 55.4764 17.0317C55.4764 15.0347 55.8735 13.2894 56.6677 11.7959C57.462 10.2939 58.5885 9.12761 60.0474 8.29692C61.515 7.45784 63.2545 7.0383 65.2659 7.0383C67.2773 7.0383 69.0125 7.45784 70.4714 8.29692C71.939 9.12761 73.0699 10.2939 73.8641 11.7959C74.6583 13.2894 75.0554 15.0347 75.0554 17.0317C75.0554 19.012 74.6583 20.7531 73.8641 22.255C73.0699 23.7486 71.939 24.9149 70.4714 25.754C69.0125 26.5847 67.2773 27 65.2659 27ZM65.2918 22.8466C66.2069 22.8466 66.9709 22.5948 67.5838 22.0914C68.1967 21.5795 68.6586 20.8831 68.9693 20.0021C69.2888 19.121 69.4485 18.1183 69.4485 16.994C69.4485 15.8696 69.2888 14.8669 68.9693 13.9859C68.6586 13.1048 68.1967 12.4084 67.5838 11.8966C66.9709 11.3847 66.2069 11.1288 65.2918 11.1288C64.3681 11.1288 63.5912 11.3847 62.961 11.8966C62.3394 12.4084 61.8689 13.1048 61.5495 13.9859C61.2388 14.8669 61.0834 15.8696 61.0834 16.994C61.0834 18.1183 61.2388 19.121 61.5495 20.0021C61.8689 20.8831 62.3394 21.5795 62.961 22.0914C63.5912 22.5948 64.3681 22.8466 65.2918 22.8466Z" fill="#000000"/>
<path d="M78.8398 0H85.7546L93.0579 17.3186H93.3686L100.672 0H107.587V26.1542H102.148V8.99913H101.928L95.065 25.6507H91.3615L84.4985 8.9362H84.2784V26.1541H78.8398V0Z" fill="#196ADB"/>
<path d="M121.167 26.1541C119.121 26.1541 117.36 25.7514 115.884 24.9459C114.416 24.132 113.285 22.9824 112.491 21.4972C111.697 20.0037 111.3 18.2374 111.3 16.1985C111.3 14.2098 111.697 12.4645 112.491 10.9626C113.285 9.46062 114.403 8.2901 115.845 7.45102C117.295 6.61195 118.996 6.19241 120.947 6.19241C122.259 6.19241 123.481 6.39798 124.611 6.80913C125.751 7.21189 126.744 7.82023 127.59 8.63413C128.444 9.44804 129.109 10.4717 129.584 11.7052C130.059 12.9302 130.296 14.3651 130.296 16.0097V17.4822H118.059L125.104 14.1595C125.104 13.3875 124.931 12.7037 124.586 12.1079C124.24 11.5122 123.761 11.0465 123.148 10.7109C122.544 10.3668 121.84 10.1948 121.038 10.1948C120.2 10.1948 119.458 10.3836 118.81 10.7612C118.171 11.1304 117.671 11.6296 117.308 12.259C116.946 12.8799 116.76 13.5721 116.751 14.3357V17.4948C116.751 18.4514 116.933 19.2779 117.295 19.9743C117.666 20.6707 118.189 21.2078 118.862 21.5854C119.535 21.9629 120.334 22.1517 121.258 22.1517C121.871 22.1517 122.432 22.0678 122.941 21.9C123.45 21.7322 123.886 21.4805 124.249 21.1448C124.611 20.8092 124.888 20.3981 125.078 19.9114L130.18 20.2386C129.921 21.4301 129.39 22.4706 128.587 23.36C127.793 24.241 126.765 24.9291 125.505 25.4241C124.253 25.9108 122.807 26.1541 121.167 26.1541Z" fill="#000000"/>
<path d="M141.225 26.0912C139.714 26.0912 138.346 25.7136 137.12 24.9584C135.903 24.1949 134.936 23.0747 134.22 21.5979C133.512 20.1128 133.158 18.292 133.158 16.1355C133.158 13.9204 133.525 12.0786 134.258 10.6102C134.992 9.13338 135.968 8.02999 137.185 7.3C138.411 6.56161 139.753 6.19241 141.212 6.19241C142.326 6.19241 143.254 6.37701 143.996 6.7462C144.747 7.10701 145.352 7.56011 145.809 8.10551C146.275 8.64252 146.629 9.17114 146.871 9.69137H147.039V0L152.543 5.31641V25.7765H147.104V22.6804H146.871C146.612 23.2174 146.245 23.7502 145.77 24.2788C145.304 24.799 144.695 25.2312 143.944 25.5752C143.202 25.9192 142.296 26.0912 141.225 26.0912ZM142.973 21.8245C143.862 21.8245 144.613 21.5895 145.226 21.1197C145.848 20.6414 146.323 19.9743 146.651 19.1184C146.987 18.2626 147.156 17.2599 147.156 16.1104C147.156 14.9608 146.992 13.9623 146.664 13.1148C146.336 12.2674 145.861 11.6129 145.239 11.1514C144.618 10.6899 143.862 10.4591 142.973 10.4591C142.067 10.4591 141.303 10.6983 140.681 11.1765C140.06 11.6548 139.589 12.3177 139.27 13.1652C138.95 14.0126 138.791 14.9944 138.791 16.1104C138.791 17.2347 138.95 18.229 139.27 19.0933C139.598 19.9492 140.068 20.6204 140.681 21.1071C141.303 21.5854 142.067 21.8245 142.973 21.8245Z" fill="#000000"/>
<path d="M156.189 4.49339V0.000108163H177.969V4.49339H169.85V25.7766H164.308V4.49339H156.189Z" fill="#196ADB"/>
<path d="M188.544 26.1542C186.498 26.1542 184.737 25.7515 183.261 24.9459C181.793 24.132 180.662 22.9825 179.868 21.4973C179.074 20.0038 178.677 18.2375 178.677 16.1985C178.677 14.2099 179.074 12.4646 179.868 10.9627C180.662 9.46073 181.78 8.29021 183.222 7.45113C184.672 6.61205 186.373 6.19252 188.324 6.19252C189.636 6.19252 190.858 6.39809 191.989 6.80924C193.128 7.212 194.121 7.82033 194.967 8.63424C195.822 9.44815 196.486 10.4718 196.961 11.7053C197.436 12.9303 197.673 14.3652 197.673 16.0098V17.4823H185.436L192.481 14.1596C192.481 13.3876 192.308 12.7038 191.963 12.108C191.617 11.5123 191.138 11.0466 190.525 10.711C189.921 10.3669 189.217 10.1949 188.415 10.1949C187.577 10.1949 186.835 10.3837 186.187 10.7613C185.549 11.1305 185.048 11.6298 184.685 12.2591C184.323 12.88 184.137 13.5722 184.129 14.3358V17.4949C184.129 18.4515 184.31 19.278 184.672 19.9744C185.044 20.6708 185.566 21.2078 186.239 21.5854C186.913 21.963 187.711 22.1518 188.635 22.1518C189.248 22.1518 189.809 22.0679 190.318 21.9001C190.827 21.7323 191.263 21.4805 191.626 21.1449C191.989 20.8093 192.265 20.3981 192.455 19.9115L197.557 20.2387C197.298 21.4302 196.767 22.4707 195.964 23.3601C195.17 24.2411 194.142 24.9292 192.882 25.4242C191.63 25.9109 190.184 26.1542 188.544 26.1542Z" fill="#000000"/>
<path d="M211.171 26.1542C209.134 26.1542 207.382 25.7347 205.914 24.8956C204.455 24.0481 203.333 22.8734 202.547 21.3715C201.77 19.8695 201.382 18.141 201.382 16.186C201.382 14.2057 201.775 12.4688 202.56 10.9753C203.354 9.47332 204.481 8.3028 205.94 7.46372C207.399 6.61625 209.134 6.19252 211.145 6.19252C212.881 6.19252 214.4 6.49879 215.704 7.11131C217.007 7.72384 218.039 8.58389 218.798 9.69148C219.558 10.7991 219.977 12.0996 220.054 13.5932H214.849C214.702 12.6283 214.314 11.8521 213.683 11.2648C213.062 10.669 212.246 10.3711 211.236 10.3711C210.381 10.3711 209.635 10.5977 208.996 11.0508C208.366 11.4955 207.874 12.1458 207.52 13.0017C207.166 13.8575 206.989 14.8938 206.989 16.1104C206.989 17.3439 207.161 18.3927 207.507 19.257C207.861 20.1212 208.357 20.7799 208.996 21.233C209.635 21.6861 210.381 21.9127 211.236 21.9127C211.866 21.9127 212.432 21.7868 212.932 21.5351C213.442 21.2834 213.86 20.9184 214.188 20.4401C214.525 19.9534 214.745 19.3703 214.849 18.6906H220.054C219.968 20.1674 219.554 21.468 218.811 22.5923C218.078 23.7083 217.063 24.5809 215.768 25.2103C214.473 25.8396 212.941 26.1542 211.171 26.1542Z" fill="#000000"/>
<path d="M229.103 14.6001V25.7766H223.586V0.000108163L228.947 2.65831V9.8551C228.947 9.5782 228.947 8.49833 228.947 8.49833C229.949 7.84385 233.613 6.19252 235.124 6.19252C236.505 6.19252 237.709 6.4862 238.737 7.07355C239.773 7.65251 240.575 8.4874 241.145 9.5782C241.724 10.6606 242.008 11.957 242 13.4673V25.7766H236.484V14.4239C236.492 13.2324 236.181 12.3052 235.551 11.6423C234.93 10.9795 234.058 10.648 232.935 10.648C232.184 10.648 231.52 10.8033 230.941 11.1137C230.372 11.4242 229.923 11.8773 229.595 12.473C229.275 13.0604 229.111 13.7694 229.103 14.6001Z" fill="#000000"/>
</svg>
