<?xml version="1.0" encoding="utf-8"?>
<!-- Generator: Adobe Illustrator 19.2.1, SVG Export Plug-In . SVG Version: 6.00 Build 0)  -->
<svg version="1.1" id="layer" xmlns="http://www.w3.org/2000/svg" xmlns:xlink="http://www.w3.org/1999/xlink" x="0px" y="0px"
	 viewBox="0 0 652 652" style="enable-background:new 0 0 652 652;" xml:space="preserve">
<rect x="153.1" y="279.5" fill="#C32127" width="24" height="77.7"/>
<g>
	<path fill="#C32127" d="M486.7,281.7c-3.9-2.1-9.1-2.2-9.2-2.2h-42.5l-7.5,14.4h37c3.7,0,5.3,1.3,6.2,2.7c0.9,1.4,1,3.1,1,3.6l0,42.6
		h-17.4c-4.8-0.1-6.9-2.1-8.2-4.5c-1.3-2.4-1.5-5.3-1.5-6.5l0-0.7c0-4.1,1.7-6.7,3.5-8.4c0.9-0.9,1.7-1.5,2.4-1.9
		c0.3-0.2,17.9-9.3,17.9-9.3v-8l-30.8,4.4c-7.9,0.9-12,6.8-13.9,12.1c-2,5.4-2,10.6-2,11.1v0.1c0,12,4.1,18.7,8.8,22.1
		c4.6,3.4,9.4,3.6,10.7,3.6c0.2,0,0.3,0,0.3,0h53.8v-61.4v-0.1C495.3,288.8,490.6,283.8,486.7,281.7"/>
	<path fill="#C32127" d="M567.7,279.3l-20.4,44.9c-0.3,0.5-0.8,0.9-1.5,0.9c-0.7,0-1.4-0.6-1.6-1.1L528,284.4c0,0-1.5-5.1-7.5-5.1
		h-20.7l29.2,67.2c1.1,2.8,2.1,8.3,0.3,12.8l-16,32.5h24.7l54.1-112.5H567.7z"/>
	<path fill="#C32127" d="M324,255.3v24.2h-25.1h-0.1c-10.8,0-15.9,3.1-19.6,9.5c-2.5,4.5-3.6,10.8-3.6,19.4v20c0,8.6,1.1,14.9,3.6,19.4
		c3.6,6.3,10.4,9.5,19.5,9.5h0.1h48.8V249.4c0,0-10.7,0-16.9,0C324,249.4,324,255.3,324,255.3 M324,342.9h-9.8
		c-7.1,0-10.9-1.8-12.5-5c-0.7-1.3-1.9-5.7-1.9-16.6v-14.7v0c0-7.8,1.2-9.3,2.6-10.8c1.4-1.6,3-1.8,4.8-1.8H324V342.9z"/>
	<path fill="#C32127" d="M254.4,282.7L254.4,282.7c-4.3-2.9-8.9-3.2-11.2-3.2c-0.7,0-52.9,0-52.9,0l0,77.8h24.3v-63.3H231
		c3.7,0.1,5.3,1.5,6.4,3.4c1,1.9,1.2,4.2,1.2,5.5c0,0,0,54.5,0,54.5h23.9v-56.8v-0.1C262.4,291,258.8,285.5,254.4,282.7"/>
	<path fill="#C32127" d="M131.9,282.7c-4.3-2.9-8.9-3.2-11.2-3.2c0,0-100.2,0-100.2,0l0,77.7h23.8v-63.3h16.4c3.7,0,5.3,1.6,6.4,3.4
		c1,1.9,1.2,4.2,1.2,5.4v0.1c0,0.5,0,54.4,0,54.4H92v-63.3h16.4c3.7,0,5.3,1.6,6.4,3.4c1,1.9,1.2,4.2,1.2,5.4c0,0,0,0,0,0.1
		c0,0.5,0,54.4,0,54.4h23.9v-56.8C139.9,291,136.2,285.5,131.9,282.7"/>
	<path fill="#C32127" d="M403.7,279.5c-0.1,0-0.1,0-0.2,0c-25.1,0-32.5,8.6-36,25.5l-11.3,52.2h25.9l10.6-48.9c1.7-8.1,3.3-11,4-11.6
		c1.5-1.8,4-2.8,9.7-2.8l9.7,0l7.6-14.3H403.7z"/>
	<path fill="#C32127" d="M129.4,282.4"/>
	<path fill="#C32127" d="M129.4,282.4"/>
	<polygon fill="#C32127" points="601.3,281.1 597.9,281.1 597.9,279.3 606.8,279.3 606.8,281.1 603.4,281.1 603.4,291.1 601.3,291.1 	
		"/>
	<path fill="#C32127" d="M618.1,286.3c-0.1-1.5-0.2-3.3-0.1-5h-0.1c-0.4,1.4-0.9,3-1.4,4.5l-1.7,5.1h-1.7l-1.6-5
		c-0.5-1.5-0.9-3.1-1.2-4.6h0c-0.1,1.6-0.1,3.4-0.2,5l-0.3,4.7h-2l0.8-11.8h2.8l1.5,4.7c0.4,1.4,0.8,2.8,1.1,4.1h0
		c0.3-1.3,0.7-2.7,1.2-4.1l1.6-4.7h2.8l0.7,11.8h-2.1L618.1,286.3z"/>
	<path fill="#C32127" d="M153.1,273.4h24v-24h-16.5c-5.6,0-7.5,3-7.5,6.8V273.4z"/>
</g>
</svg>
