<svg width="29" height="10" viewBox="0 0 29 10" fill="none" xmlns="http://www.w3.org/2000/svg">
<path d="M8.5706 0.0394256V9.82097H6.69938L2.24147 3.65255H2.16642V9.82097H0V0H1.90124L6.32413 6.19827H6.41419V0L8.5706 0.0394256Z" fill="#196ADB"/>
<path d="M9.97952 9.82097V5.95571V2.09046L11.5085 3.10682V9.82097H9.97952ZM11.5085 2.10988L9.97952 1.01251C10.3318 1.01252 10.7334 1.01251 11.0502 1.01251C11.3671 1.01251 11.2726 1.01251 11.5085 1.01251C11.5085 1.42975 11.5085 1.57715 11.5085 1.85948C11.5085 2.02887 11.5085 2.02336 11.5085 2.10988Z" fill="black"/>
<path d="M15.0648 5.58229V9.82097H12.9335V2.46391H14.9648V3.76805C14.9648 3.65255 14.9648 2.84889 14.9648 2.84889C15.365 2.59545 16.796 2.36766 17.3664 2.36766C17.9 2.36766 18.3653 2.47995 18.7623 2.70452C19.1592 2.9291 19.4677 3.24992 19.6879 3.66699C19.908 4.08085 20.0181 4.57491 20.0181 5.14918V9.82097H17.8867V5.51492C17.89 5.06256 17.77 4.70966 17.5265 4.45621C17.283 4.19955 16.9477 4.07122 16.5208 4.07122C16.234 4.07122 15.9804 4.13058 15.7603 4.24928C15.5435 4.36798 15.3734 4.54123 15.25 4.76901C15.1299 4.99358 15.0682 5.26468 15.0648 5.58229Z" fill="black"/>
<path d="M25.2175 10C24.4404 10 23.7682 9.84119 23.2012 9.52358C22.6375 9.20276 22.2022 8.75682 21.8954 8.18576C21.5885 7.61149 21.4351 6.94578 21.4351 6.18864C21.4351 5.42509 21.5885 4.75778 21.8954 4.18672C22.2022 3.61245 22.6375 3.16651 23.2012 2.84889C23.7682 2.52807 24.4404 2.36766 25.2175 2.36766C25.9947 2.36766 26.6651 2.52807 27.2288 2.84889C27.7959 3.16651 28.2328 3.61245 28.5397 4.18672C28.8466 4.75778 29 5.42509 29 6.18864C29 6.94578 28.8466 7.61149 28.5397 8.18576C28.2328 8.75682 27.7959 9.20276 27.2288 9.52358C26.6651 9.84119 25.9947 10 25.2175 10ZM25.2275 8.41193C25.5811 8.41193 25.8763 8.31569 26.1131 8.1232C26.3499 7.9275 26.5284 7.66121 26.6485 7.32435C26.7719 6.98749 26.8336 6.60411 26.8336 6.17421C26.8336 5.74431 26.7719 5.36092 26.6485 5.02406C26.5284 4.6872 26.3499 4.42092 26.1131 4.22522C25.8763 4.02952 25.5811 3.93167 25.2275 3.93167C24.8706 3.93167 24.5704 4.02952 24.3269 4.22522C24.0868 4.42092 23.905 4.6872 23.7816 5.02406C23.6615 5.36092 23.6015 5.74431 23.6015 6.17421C23.6015 6.60411 23.6615 6.98749 23.7816 7.32435C23.905 7.66121 24.0868 7.9275 24.3269 8.1232C24.5704 8.31569 24.8706 8.41193 25.2275 8.41193Z" fill="black"/>
</svg>
